# Blender v2.78 (sub 0) OBJ File: 'characterrightwing.blend'
# www.blender.org
o Sphere.001
v 0.537600 0.422824 -0.464713
v 0.537600 0.422824 -0.464713
v 0.540994 0.422824 -0.464501
v 1.339274 0.843501 -0.812447
v 1.845173 1.082965 -1.265617
v 1.518568 1.013594 -1.203940
v 1.854609 0.879794 -1.393131
v 1.556847 1.065179 -1.444092
v 2.268488 1.462584 -2.071366
v 1.348340 0.577620 -0.958238
v 1.524978 0.825588 -1.307030
v 0.579318 0.707469 -0.996447
v 0.359214 0.569552 -0.703402
v 0.889214 0.748568 -0.759745
v 1.039991 0.621356 -0.964728
v 0.717658 0.351532 -0.492692
v 0.531231 0.375776 -0.362843
v 0.711248 0.539538 -0.389602
v 0.895624 0.560561 -0.862835
v 1.162636 0.595534 -0.463655
v 1.092125 0.414948 -0.361882
v 1.169046 0.407528 -0.566745
v 1.753961 0.881326 -0.832314
v 1.876460 0.940531 -0.908685
v 1.297441 0.461663 -0.656096
v 2.218096 0.630936 -0.689895
v 1.761199 0.660646 -0.664573
v 1.577847 0.537597 -0.776034
v 1.798401 0.672554 -1.010941
v 1.909584 0.960940 -1.261816
v 2.448218 1.164861 -1.651431
v 1.833979 0.809073 -1.265613
v 2.025031 0.951335 -0.991147
v 2.555727 0.919019 -1.233401
v 1.702945 0.632357 -0.943569
v 1.565974 0.574886 -0.842970
v 2.234442 0.772728 -0.979559
vt 0.8229 0.0395
vt 0.9549 0.0395
vt 0.9015 0.0715
vt 0.6644 0.3755
vt 0.5995 0.3719
vt 0.6644 0.1949
vt 0.2238 0.5812
vt 0.2059 0.6408
vt 0.1701 0.6126
vt 0.3968 0.9387
vt 0.5311 0.9387
vt 0.4520 0.9695
vt 0.3779 0.4414
vt 0.4420 0.4737
vt 0.3437 0.5046
vt 0.0758 0.8549
vt 0.1162 0.8953
vt 0.0012 0.8953
vt 0.8382 0.6839
vt 0.7635 0.6436
vt 0.9128 0.6436
vt 0.4444 0.4972
vt 0.5865 0.4414
vt 0.6520 0.4972
vt 0.7693 0.5021
vt 0.7167 0.4340
vt 0.7575 0.4246
vt 0.7690 0.1949
vt 0.7244 0.2691
vt 0.6667 0.2073
vt 0.8614 0.5466
vt 0.7864 0.5069
vt 0.9360 0.5069
vt 0.7770 0.1764
vt 0.8520 0.1367
vt 0.9265 0.1764
vt 0.5785 0.8916
vt 0.7280 0.8916
vt 0.6535 0.9313
vt 0.8924 0.0362
vt 0.8276 0.0012
vt 0.9294 0.0167
vt 0.8797 0.5915
vt 0.8116 0.6195
vt 0.7957 0.5827
vt 0.8799 0.9246
vt 0.7304 0.9246
vt 0.8053 0.8849
vt 0.2628 0.8001
vt 0.1987 0.8417
vt 0.1701 0.8417
vt 0.3887 0.7565
vt 0.3368 0.7977
vt 0.1701 0.7565
vt 0.4139 0.3721
vt 0.2747 0.3444
vt 0.3909 0.3392
vt 0.7209 0.3569
vt 0.6667 0.3579
vt 0.6902 0.3053
vt 0.5798 0.3745
vt 0.4936 0.4283
vt 0.4478 0.3745
vt 0.6155 0.0402
vt 0.6818 0.0097
vt 0.8055 0.0402
vt 0.2277 0.0012
vt 0.2821 0.0370
vt 0.2689 0.0586
vt 0.1349 0.8526
vt 0.0159 0.8403
vt 0.0653 0.8047
vt 0.6340 0.0715
vt 0.6423 0.0426
vt 0.8205 0.0715
vt 0.6327 0.1819
vt 0.5846 0.1367
vt 0.7746 0.1367
vt 0.5948 0.7565
vt 0.7766 0.7799
vt 0.6945 0.7954
vt 0.6744 0.8893
vt 0.6254 0.8415
vt 0.7280 0.8415
vt 0.5970 0.7542
vt 0.3968 0.7104
vt 0.4763 0.7053
vt 0.7714 0.2368
vt 0.8963 0.2704
vt 0.8529 0.2573
vt 0.4767 0.0084
vt 0.4650 0.0576
vt 0.4366 0.0704
vt 0.6186 0.4191
vt 0.3944 0.6408
vt 0.1967 0.4785
vt 0.1703 0.4414
vt 0.1505 0.8953
vt 0.4722 0.4545
vt 0.6667 0.5021
vt 0.7690 0.2733
vt 0.8079 0.0362
vt 0.9147 0.6195
vt 0.3367 0.8417
vt 0.3660 0.7896
vt 0.2599 0.2958
vt 0.1953 0.3721
vt 0.1703 0.3251
vt 0.6965 0.2757
vt 0.6667 0.4222
vt 0.6712 0.4000
vt 0.6771 0.3677
vt 0.6519 0.0012
vt 0.4044 0.0012
vt 0.4057 0.1767
vt 0.0012 0.8526
vt 0.6155 0.0464
vt 0.5620 0.1374
vt 0.7997 0.7565
vt 0.5948 0.8567
vt 0.5825 0.7053
vt 0.6066 0.7437
vt 0.9430 0.2368
vt 0.4081 0.0730
vt 0.5561 0.0012
vt 0.6132 0.0730
vn -0.1327 0.9298 0.3432
vn -0.2754 -0.6396 -0.7177
vn -0.1716 0.9685 0.1807
vn -0.0198 -0.8101 -0.5860
vn -0.2912 0.9311 0.2195
vn -0.0988 -0.7867 -0.6093
vn -0.1025 -0.7837 -0.6126
vn -0.1573 0.9301 0.3320
vn -0.0789 -0.6877 -0.7217
vn -0.3428 -0.8804 -0.3278
vn -0.2602 0.8890 0.3769
vn -0.0771 -0.8518 -0.5181
vn -0.1365 0.8893 0.4366
vn -0.0066 0.8166 0.5772
vn 0.0665 -0.9593 0.2746
vn 0.0873 0.4630 0.8820
vn 0.0528 -0.9245 -0.3775
vn -0.0484 0.8255 0.5624
vn 0.1797 -0.9832 -0.0307
vn 0.2527 0.3983 0.8818
vn 0.1074 -0.9341 -0.3404
vn -0.0990 0.9212 0.3763
vn -0.3547 -0.5321 -0.7688
vn 0.8777 0.4667 0.1093
vn 0.1327 -0.8812 -0.4538
vn 0.8205 -0.5715 0.0096
vn 0.7371 -0.6185 0.2724
vn -0.3879 0.2597 -0.8844
vn -0.1688 -0.8369 -0.5207
vn 0.2259 -0.9400 -0.2557
vn 0.0024 0.6694 -0.7429
vn 0.3886 0.5055 0.7704
vn 0.3855 0.5022 0.7741
vn 0.3898 0.5069 0.7688
vn -0.1481 -0.4762 -0.8668
vn -0.2454 0.9203 0.3047
vn -0.2672 0.9456 0.1856
vn -0.2737 0.9484 0.1601
vn -0.0999 -0.7858 -0.6103
vn -0.4022 -0.4137 -0.8167
vn -0.1763 -0.8184 -0.5469
vn -0.4850 0.6319 0.6045
vn 0.1367 -0.9868 0.0871
vn -0.0140 0.1762 0.9843
vn 0.5049 -0.8347 0.2198
vn 0.1960 0.5975 0.7776
vn 0.0845 0.6740 0.7339
vn 0.3558 0.5729 0.7384
vn 0.1628 -0.9300 -0.3295
vn 0.1574 -0.9309 -0.3296
vn 0.1573 -0.9301 -0.3320
vn 0.1575 -0.9335 -0.3221
vn 0.2570 -0.8242 -0.5047
vn 0.1575 -0.9344 -0.3194
vn 0.8907 -0.4406 -0.1118
vn 0.8916 -0.4412 -0.1020
vn 0.8908 -0.4406 -0.1112
vn -0.3397 0.9403 0.0225
vn 0.7213 0.3984 0.5666
vn 0.1226 -0.8762 -0.4661
vn 0.8917 -0.4414 -0.1005
vn 0.6241 -0.5470 0.5579
vn 0.2503 -0.9472 -0.2003
vn -0.1040 -0.7824 -0.6141
vn 0.3044 -0.9448 0.1211
vn 0.6698 -0.5918 -0.4485
vn 0.1690 -0.9621 -0.2139
vn 0.3487 0.3824 0.8557
vn 0.3844 0.5010 0.7753
vn 0.1505 0.9083 0.3902
s 1
f 4/1/1 5/2/1 6/3/1
f 7/4/2 8/5/2 9/6/2
f 5/7/3 8/8/3 6/9/3
f 7/10/4 10/11/4 11/12/4
f 12/13/5 13/14/5 14/15/5
f 10/16/6 15/17/7 11/18/6
f 4/19/8 6/20/8 14/21/8
f 8/22/9 15/23/9 12/24/9
f 13/25/10 16/26/10 17/27/10
f 13/28/11 18/29/11 14/30/11
f 19/31/12 10/32/12 16/33/12
f 4/34/13 14/35/13 18/36/13
f 4/37/14 18/38/14 20/39/14
f 16/40/15 21/41/15 17/42/15
f 18/43/16 21/44/16 20/45/16
f 16/46/17 10/47/17 22/48/17
f 4/49/18 23/50/18 24/51/18
f 21/52/19 25/53/19 26/54/19
f 21/55/20 27/56/20 20/57/20
f 10/58/21 28/59/21 25/60/21
f 4/61/22 24/62/22 5/63/22
f 29/64/23 30/65/23 31/66/23
f 24/67/24 30/68/24 5/69/24
f 10/70/25 32/71/25 29/72/25
f 30/73/26 7/74/26 9/75/26
f 33/76/27 29/77/27 31/78/27
f 34/79/28 35/80/28 33/81/28
f 12/82/29 19/83/29 13/84/29
f 36/85/30 34/86/30 37/87/30
f 26/88/31 28/89/31 27/90/31
f 37/91/32 33/92/33 24/93/34
f 7/4/35 11/94/35 8/5/35
f 5/7/36 9/95/36 8/8/36
f 14/15/37 6/96/37 12/13/37
f 8/97/38 12/13/38 6/96/38
f 10/16/6 19/98/39 15/17/7
f 8/22/40 11/99/40 15/23/40
f 13/25/41 19/100/41 16/26/41
f 13/28/42 17/101/42 18/29/42
f 16/40/43 22/102/43 21/41/43
f 18/43/44 17/103/44 21/44/44
f 4/49/18 20/104/18 23/50/18
f 21/52/45 22/105/45 25/53/45
f 23/106/46 20/57/46 27/56/46
f 21/55/47 26/107/47 27/56/47
f 27/56/48 37/108/48 23/106/48
f 25/60/49 22/109/49 10/58/49
f 10/58/50 29/110/51 35/111/52
f 36/112/53 28/59/53 10/58/53
f 10/58/50 35/111/52 36/112/54
f 29/64/55 32/113/56 30/65/57
f 24/67/58 31/114/58 30/68/58
f 30/68/59 9/115/59 5/69/59
f 10/70/60 7/116/60 32/71/60
f 30/73/57 32/117/56 7/74/61
f 33/76/62 35/118/62 29/77/62
f 34/79/63 36/119/63 35/80/63
f 12/82/64 15/120/7 19/83/39
f 37/87/65 27/121/65 36/85/65
f 28/122/66 36/85/66 27/121/66
f 26/88/67 25/123/67 28/89/67
f 24/93/68 23/124/68 37/91/68
f 37/91/32 34/125/69 33/92/33
f 33/92/70 31/126/70 24/93/70
l 1 2
l 2 3
